<svg xmlns="http://www.w3.org/2000/svg" width="800" height="500" viewBox="0 0 800 500">
  <rect width="800" height="500" fill="#14213d"/>
  <rect x="18" y="18" width="764" height="464" fill="#14213d" stroke="#f2f5f7" stroke-width="6"/>
  <text x="400" y="80" font-family="Arial Black, sans-serif" font-size="44" fill="#f2f5f7" text-anchor="middle" font-weight="900">TABELA PERIÓDICA</text>
  <g stroke="#14213d" stroke-width="4">
    <rect x="60"  y="110" width="60" height="60" fill="#1c3a94"/>
    <rect x="680" y="110" width="60" height="60" fill="#f4e35c"/>
    <rect x="130" y="170" width="60" height="60" fill="#d2402f"/>
    <rect x="610" y="170" width="60" height="60" fill="#f2f5f7"/>
    <rect x="200" y="230" width="60" height="60" fill="#1c3a94"/>
    <rect x="540" y="230" width="60" height="60" fill="#f4e35c"/>
    <rect x="270" y="290" width="60" height="60" fill="#f2f5f7"/>
    <rect x="470" y="290" width="60" height="60" fill="#d2402f"/>
    <rect x="340" y="350" width="60" height="60" fill="#f4e35c"/>
    <rect x="410" y="350" width="60" height="60" fill="#1c3a94"/>
  </g>
  <text x="90" y="150" font-family="Arial Black" font-size="24" fill="#f2f5f7" text-anchor="middle">H</text>
  <text x="710" y="150" font-family="Arial Black" font-size="24" fill="#14213d" text-anchor="middle">He</text>
  <text x="160" y="210" font-family="Arial Black" font-size="24" fill="#14213d" text-anchor="middle">Li</text>
  <text x="640" y="210" font-family="Arial Black" font-size="24" fill="#14213d" text-anchor="middle">Ne</text>
  <text x="230" y="270" font-family="Arial Black" font-size="24" fill="#f2f5f7" text-anchor="middle">Na</text>
  <text x="570" y="270" font-family="Arial Black" font-size="24" fill="#14213d" text-anchor="middle">Cl</text>
  <text x="300" y="330" font-family="Arial Black" font-size="24" fill="#14213d" text-anchor="middle">K</text>
  <text x="500" y="330" font-family="Arial Black" font-size="24" fill="#14213d" text-anchor="middle">Br</text>
  <text x="370" y="390" font-family="Arial Black" font-size="24" fill="#14213d" text-anchor="middle">Rb</text>
  <text x="440" y="390" font-family="Arial Black" font-size="24" fill="#f2f5f7" text-anchor="middle">I</text>
  <text x="70" y="470" font-family="Georgia, serif" font-style="italic" font-size="30" fill="#f4e35c">118 elementos</text>
  <rect x="620" y="440" width="120" height="30" fill="none" stroke="#f2f5f7" stroke-width="4"/>
  <text x="680" y="462" font-family="Arial" font-size="16" fill="#f2f5f7" text-anchor="middle">INTERATIVA</text>
</svg>